<svg aria-hidden="true" style="position: absolute; width: 0; height: 0; overflow: hidden;" version="1.1" xmlns="http://www.w3.org/2000/svg" xmlns:xlink="http://www.w3.org/1999/xlink">
<defs>
<symbol id="joystick" viewBox="0 0 32 32">
<path d="M23.083 5.387c-0.706 0.063-1.356 0.194-3.231 0.65-3.75 0.913-3.949 0.919-7.237 0.119-2.343-0.569-3.131-0.712-4.068-0.75-1.725-0.069-2.863 0.338-4.043 1.45-1.637 1.543-2.806 3.906-3.662 7.405-0.55 2.275-0.781 3.887-0.831 5.881-0.051 2.081 0.112 3.444 0.543 4.418 0.319 0.719 0.918 1.338 1.607 1.657 0.269 0.118 0.399 0.137 1.175 0.137 0.756-0.006 0.931-0.025 1.281-0.15 1.45-0.518 3.068-1.594 5-3.312 0.431-0.387 0.975-0.824 1.212-0.987 0.768-0.506 1.906-0.906 3.287-1.15 0.631-0.113 3.118-0.113 3.75 0 1.381 0.243 2.518 0.644 3.287 1.15 0.237 0.162 0.781 0.6 1.213 0.987 1.943 1.731 3.618 2.837 4.968 3.287 0.444 0.15 0.6 0.169 1.343 0.175 0.837 0 0.85 0 1.275-0.212 0.606-0.301 1.030-0.75 1.375-1.456 0.538-1.107 0.7-2.244 0.643-4.55-0.093-3.994-1.312-8.712-2.924-11.355-1.562-2.55-3.45-3.625-5.962-3.394zM9.99 7.105c0.394 0.075 1.425 0.312 2.281 0.525 3.375 0.825 4.081 0.819 7.699-0.062 2.956-0.719 3.956-0.787 5.137-0.363 2.519 0.913 4.48 5.162 5.237 11.312 0.131 1.093 0.15 3.349 0.025 4.055-0.188 1.1-0.556 1.882-1.031 2.156-0.512 0.3-1.356 0.188-2.356-0.307-1.1-0.55-2.087-1.269-3.68-2.681-0.501-0.444-1.063-0.913-1.251-1.043-2.806-1.913-7.911-2.144-11.311-0.513-0.762 0.369-1.169 0.656-2.125 1.493-2.018 1.768-3.337 2.65-4.525 3.012-1.625 0.5-2.362-0.356-2.556-2.949-0.269-3.756 1.081-9.593 2.856-12.324 1.425-2.188 2.987-2.831 5.599-2.313z"></path>
<path d="M8.034 9.386c-0.862 0.219-1.607 0.988-1.756 1.818-0.038 0.206-0.063 0.231-0.275 0.269-0.931 0.15-1.781 1.031-1.881 1.962-0.143 1.269 0.662 2.431 1.813 2.624 0.262 0.044 0.281 0.063 0.344 0.325 0.125 0.488 0.262 0.744 0.581 1.082 0.469 0.499 0.894 0.687 1.594 0.718 0.662 0.032 1.080-0.093 1.555-0.456 0.313-0.237 0.675-0.75 0.794-1.125 0.157-0.5 0.175-0.531 0.35-0.531 0.088 0 0.344-0.088 0.557-0.188 1.156-0.55 1.637-1.987 1.063-3.162-0.294-0.594-0.982-1.125-1.613-1.244-0.181-0.038-0.237-0.081-0.269-0.213-0.181-0.826-0.6-1.369-1.331-1.713-0.437-0.206-1.081-0.275-1.525-0.168zM8.928 10.905c0.282 0.144 0.438 0.456 0.438 0.881 0 0.518 0.093 0.813 0.319 1 0.168 0.144 0.25 0.163 0.669 0.163 0.543 0 0.831 0.106 1.037 0.394 0.269 0.363 0.088 1-0.319 1.157-0.1 0.037-0.4 0.075-0.675 0.093-0.794 0.038-1.031 0.282-1.031 1.087 0 0.512-0.144 0.794-0.469 0.931-0.288 0.118-0.463 0.112-0.7-0.038-0.325-0.194-0.4-0.369-0.444-1.025-0.044-0.531-0.069-0.619-0.206-0.762-0.188-0.188-0.506-0.269-1.038-0.275-0.319 0-0.419-0.025-0.569-0.156-0.369-0.306-0.412-0.774-0.106-1.106 0.188-0.206 0.5-0.3 0.988-0.3 0.687 0 0.881-0.213 0.931-1.006 0.025-0.362 0.075-0.606 0.15-0.737 0.2-0.337 0.675-0.475 1.025-0.3zM22.464 9.599c-0.875 0.325-1.219 1.281-0.757 2.081 0.456 0.774 1.575 0.913 2.219 0.269 0.531-0.531 0.55-1.431 0.037-1.987-0.331-0.369-1.030-0.538-1.5-0.362zM19.821 12.392c-0.506 0.094-0.794 0.325-1.013 0.806-0.569 1.256 0.825 2.487 2.019 1.787 0.412-0.243 0.618-0.581 0.65-1.069 0.031-0.475-0.063-0.781-0.319-1.068-0.337-0.387-0.819-0.55-1.338-0.456zM25.489 12.38c-0.668 0.137-1.137 0.7-1.137 1.375 0 0.618 0.269 1.050 0.787 1.293 0.582 0.275 1.157 0.175 1.607-0.281 0.456-0.45 0.556-1.024 0.282-1.612-0.175-0.374-0.55-0.681-0.906-0.744-0.136-0.019-0.244-0.039-0.351-0.062l0.032 0.006c-0.050-0.006-0.194 0.006-0.313 0.025zM22.333 15.317c-0.85 0.381-1.088 1.487-0.481 2.194 0.288 0.337 0.631 0.499 1.075 0.499 1.206 0 1.862-1.399 1.080-2.312-0.125-0.15-0.344-0.319-0.481-0.381-0.332-0.15-0.869-0.15-1.194 0z"></path>
</symbol>
<symbol id="joystick-game" viewBox="0 0 31 32">
<path d="M1.738 0.662c-0.677 0.255-1.217 0.745-1.53 1.368l-0.007 0.016-0.178 0.368v25l0.202 0.417c0.245 0.496 0.68 0.956 1.103 1.17 0.687 0.35 0.631 0.343 5.595 0.343h4.571l0.043 0.288c0.043 0.355 0.331 0.974 0.594 1.305 0.27 0.337 0.815 0.704 1.28 0.857 0.337 0.11 0.503 0.129 1.048 0.11 0.601-0.018 0.68-0.036 1.103-0.245 0.619-0.307 1.029-0.748 1.519-1.624l0.38-0.686 3.842-0.019c2.114-0.012 3.885-0.036 3.934-0.067 0.074-0.036 0.19 0.129 0.521 0.735 0.527 0.956 0.895 1.348 1.556 1.666 0.46 0.215 0.478 0.221 1.238 0.221s0.772 0 1.226-0.227c0.594-0.304 1.064-0.779 1.352-1.361l0.008-0.018 0.196-0.417v-8.701l-0.141-0.459c-0.546-1.728-1.942-3.020-3.64-3.37l-0.355-0.067-0.013-7.396-0.018-7.396-0.196-0.41c-0.27-0.576-0.668-0.981-1.238-1.263l-0.459-0.226-11.611-0.013c-11.091-0.013-11.63-0.013-11.924 0.098zM25.133 1.74c0.36 0.163 0.644 0.441 0.81 0.787l0.004 0.010c0.135 0.276 0.147 0.392 0.147 1.238v0.938h-25.001v-0.95c0-1.078 0.043-1.256 0.417-1.648 0.122-0.129 0.337-0.289 0.472-0.35 0.238-0.11 0.661-0.116 11.587-0.116 9.939 0 11.373 0.013 11.563 0.092zM26.095 11.532v5.723l-0.527 0.128c-0.864 0.215-1.753 0.698-2.255 1.232l-0.184 0.19h-3.346l-0.478-0.398c-0.576-0.484-1.274-0.846-1.973-1.017-0.741-0.19-1.838-0.147-2.561 0.098-1.55 0.521-2.702 1.753-3.15 3.376-0.129 0.466-0.134 0.619-0.159 3.927l-0.019 3.45h-4.485c-2.862 0-4.565-0.025-4.712-0.061-0.399-0.11-0.797-0.429-0.98-0.791l-0.172-0.324v-21.249h25v5.716zM17.375 18.56c1.054 0.368 1.923 1.274 2.291 2.371 0.147 0.447 0.356 0.607 0.698 0.546 0.454-0.086 0.54-0.496 0.257-1.189l-0.159-0.38h0.956c0.876 0 0.95 0.006 0.919 0.104-0.018 0.061-0.092 0.264-0.159 0.447-0.171 0.471-0.165 0.65 0.049 0.864 0.38 0.38 0.754 0.184 1.011-0.521 0.938-2.561 4.118-3.248 5.974-1.287 1.593 1.672 1.348 4.093-0.545 5.472-0.264 0.196-0.441 0.368-0.466 0.466-0.092 0.368 0.159 0.705 0.527 0.705 0.257 0 0.759-0.319 1.244-0.784l0.288-0.282v2.2c0 2.084-0.013 2.218-0.129 2.482-0.417 0.925-1.471 1.305-2.372 0.852-0.214-0.104-0.447-0.282-0.552-0.41-0.098-0.123-0.637-1.067-1.207-2.090s-1.115-1.942-1.213-2.040c-0.127-0.118-0.27-0.222-0.424-0.307l-0.011-0.006c-0.245-0.135-0.306-0.135-2.781-0.153-2.929-0.019-3.027-0.006-3.462 0.435-0.171 0.178-0.588 0.864-1.268 2.096-0.559 1.017-1.122 1.954-1.256 2.107-0.343 0.373-0.754 0.557-1.268 0.557-0.803 0-1.533-0.582-1.698-1.354-0.043-0.184-0.067-1.14-0.067-2.366v-2.058l0.386 0.368c0.459 0.441 0.925 0.753 1.133 0.753 0.319 0 0.557-0.226 0.564-0.533 0-0.294-0.049-0.373-0.404-0.606-0.999-0.662-1.642-1.832-1.642-2.997 0-1.63 1.146-3.094 2.782-3.554 0.484-0.135 1.501-0.085 2.004 0.092zM23.846 26.777c0.153 0.067 0.913 1.33 0.858 1.415-0.013 0.031-1.514 0.049-3.327 0.049h-3.302l0.386-0.692c0.232-0.41 0.447-0.717 0.533-0.759 0.196-0.104 4.631-0.11 4.852-0.013z"></path>
<path d="M2.229 2.782c-0.098 0.098-0.158 0.233-0.158 0.383 0 0.152 0.063 0.29 0.164 0.389l0 0c0.141 0.129 0.214 0.147 0.637 0.147s0.496-0.019 0.637-0.147c0.101-0.099 0.164-0.237 0.164-0.389 0-0.149-0.060-0.285-0.158-0.383l0 0c-0.135-0.135-0.196-0.153-0.643-0.153s-0.508 0.019-0.643 0.153zM4.808 2.819c-0.184 0.214-0.196 0.355-0.067 0.6 0.122 0.239 0.38 0.331 0.852 0.301 0.453-0.025 0.625-0.141 0.686-0.447 0.043-0.227-0.092-0.545-0.251-0.606-0.055-0.019-0.319-0.038-0.582-0.038-0.46 0-0.484 0.006-0.638 0.191zM7.437 2.782c-0.202 0.196-0.202 0.515-0.006 0.741 0.122 0.147 0.196 0.172 0.552 0.196 0.508 0.031 0.759-0.062 0.87-0.325 0.092-0.226 0.055-0.435-0.116-0.631-0.11-0.117-0.184-0.135-0.638-0.135-0.466 0-0.527 0.013-0.661 0.153zM21.579 2.764c-0.184 0.202-0.221 0.38-0.123 0.619 0.141 0.337 0.276 0.355 1.906 0.337l1.458-0.019 0.147-0.171c0.196-0.232 0.196-0.552-0.006-0.747l-0.147-0.153h-1.556c-1.532 0-1.556 0-1.679 0.135zM7.756 9.779c-1.073 1.072-1.979 2.016-2.010 2.096-0.122 0.306 0.024 0.483 1.985 2.444 1.912 1.912 1.918 1.912 2.175 1.912 0.35 0 0.564-0.202 0.564-0.533 0-0.215-0.080-0.306-1.698-1.93l-1.697-1.703 1.697-1.703c1.649-1.661 1.698-1.716 1.698-1.949-0.006-0.257-0.080-0.392-0.289-0.502-0.355-0.19-0.361-0.184-2.426 1.868zM14.9 7.899c-0.073 0.031-0.19 0.159-0.251 0.288-0.251 0.496-3.199 7.426-3.199 7.524 0 0.147 0.166 0.441 0.276 0.483 0.214 0.080 0.564 0.038 0.673-0.085 0.062-0.067 0.821-1.783 1.691-3.811 1.649-3.829 1.704-3.995 1.483-4.271-0.122-0.147-0.472-0.215-0.674-0.129zM16.995 7.91c-0.202 0.11-0.276 0.245-0.276 0.503 0 0.238 0.038 0.288 1.698 1.949l1.704 1.703-1.704 1.703c-1.666 1.667-1.697 1.704-1.697 1.949 0 0.343 0.19 0.515 0.552 0.515h0.27l3.897-3.897v-0.546l-1.979-1.972c-1.721-1.722-1.998-1.979-2.157-1.979-0.104 0-0.238 0.037-0.306 0.073zM15.953 19.92c-0.245 0.129-0.275 0.239-0.275 0.889v0.631h-0.643c-0.607 0-0.656 0.013-0.797 0.153-0.22 0.215-0.208 0.54 0.025 0.772 0.178 0.171 0.196 0.178 0.796 0.178h0.619v0.631c0 0.582 0.013 0.643 0.141 0.766 0.208 0.196 0.588 0.184 0.778-0.018 0.134-0.141 0.153-0.227 0.171-0.766l0.024-0.613h0.57c0.527 0 0.588-0.013 0.759-0.159 0.252-0.208 0.27-0.564 0.038-0.791-0.135-0.141-0.19-0.152-0.766-0.152h-0.613v-0.515c0-0.619-0.079-0.87-0.312-0.987-0.203-0.11-0.35-0.11-0.515-0.019zM26.4 19.926c-0.238 0.122-0.312 0.331-0.294 0.821 0.025 0.515 0.129 0.674 0.484 0.729 0.172 0.031 0.251 0.006 0.411-0.129 0.19-0.159 0.196-0.178 0.196-0.674s-0.006-0.515-0.19-0.668c-0.208-0.178-0.373-0.196-0.606-0.080zM24.716 21.593c-0.154 0.147-0.203 0.447-0.117 0.674 0.067 0.171 0.368 0.276 0.784 0.276 0.337 0 0.422-0.025 0.582-0.16 0.251-0.208 0.27-0.564 0.037-0.791-0.135-0.134-0.196-0.152-0.643-0.152s-0.508 0.018-0.643 0.153zM27.308 21.624c-0.159 0.165-0.184 0.22-0.153 0.417 0.061 0.373 0.27 0.502 0.808 0.502 0.54 0 0.748-0.129 0.81-0.502 0.030-0.196 0.006-0.251-0.154-0.417-0.178-0.172-0.215-0.184-0.656-0.184s-0.478 0.013-0.655 0.184zM26.272 22.659c-0.159 0.165-0.178 0.22-0.178 0.588 0 0.423 0.104 0.723 0.276 0.791 0.055 0.018 0.208 0.036 0.337 0.036 0.368 0 0.489-0.196 0.489-0.809 0-0.429-0.018-0.502-0.152-0.631-0.215-0.221-0.54-0.208-0.772 0.024zM19.495 23.67c-0.135 0.116-0.171 0.196-0.171 0.404s0.036 0.289 0.171 0.405c0.147 0.129 0.232 0.147 0.631 0.147 0.429 0 0.478-0.013 0.644-0.178 0.122-0.122 0.178-0.239 0.178-0.374s-0.055-0.251-0.178-0.373c-0.166-0.166-0.215-0.178-0.644-0.178-0.398 0-0.483 0.019-0.631 0.147zM22.198 23.596c-0.356 0.172-0.343 0.797 0.018 0.962 0.080 0.038 0.337 0.068 0.576 0.068 0.373 0 0.447-0.019 0.576-0.153 0.116-0.11 0.153-0.215 0.153-0.398s-0.037-0.288-0.153-0.398c-0.129-0.134-0.196-0.153-0.594-0.147-0.245 0-0.508 0.031-0.576 0.068z"></path>
</symbol>
<symbol id="logo" viewBox="0 0 32 32">
<path stroke-linejoin="round" stroke-linecap="round" stroke-miterlimit="4" stroke-width="1.5238" d="M8.381 10.234l-7.619 7.619 7.619 7.619M23.62 10.234l7.619 7.619-7.619 7.619"></path>
<path d="M18.694 4.606l-6.543 24.417c-0.073 0.268-0.314 0.461-0.601 0.461-0.343 0-0.622-0.278-0.622-0.622 0-0.057 0.008-0.113 0.022-0.165l-0.001 0.004 6.543-24.418c0.073-0.268 0.315-0.461 0.601-0.461 0.344 0 0.622 0.278 0.622 0.622 0 0.057-0.008 0.113-0.022 0.166l0.001-0.004z"></path>
<path d="M17.492 4.284c0.073-0.268 0.315-0.461 0.601-0.461 0.344 0 0.622 0.278 0.622 0.622 0 0.057-0.008 0.113-0.022 0.166l0.001-0.004-0.797 2.974-1.202-0.322 0.797-2.974z"></path>
<path stroke-linejoin="miter" stroke-linecap="round" stroke-miterlimit="4" stroke-width="0.7619" d="M19.578 6.114l2.403 0.645M13.57 4.505l2.403 0.644M14.969 1.687l1.247 2.141M13.4 7.543l2.15-1.231M19.258 7.306l1.247 2.141M19.924 4.821l2.151-1.23"></path>
</symbol>
<symbol id="magnifying-glass" viewBox="0 0 32 32">
<path stroke-linejoin="miter" stroke-linecap="butt" stroke-miterlimit="4" stroke-width="4" d="M24.1 13.050c0 6.102-4.947 11.050-11.050 11.050s-11.050-4.947-11.050-11.050c0-6.102 4.947-11.050 11.050-11.050s11.050 4.947 11.050 11.050z"></path>
<path d="M28.6 31.43c0.359 0.348 0.85 0.562 1.39 0.562 1.105 0 2.001-0.896 2.001-2.001 0-0.54-0.214-1.031-0.562-1.391l0.001 0.001-2.829 2.829zM22.947 20.118l-1.415-1.415-2.829 2.829 1.415 1.415 2.829-2.829zM31.432 28.6l-8.484-8.484-2.829 2.831 8.482 8.484 2.829-2.831z"></path>
</symbol>
<symbol id="moon" viewBox="0 0 32 32">
<path d="M10.845 0.267c-2.371 0.796-4.524 2.134-6.295 3.912-2.317 2.337-3.777 5.185-4.37 8.536-0.19 1.075-0.239 3.35-0.098 4.524 0.269 2.211 1.105 4.614 2.236 6.417 1.262 1.973 2.857 3.617 4.723 4.896l0.057 0.037c1.327 0.886 3.314 1.754 4.917 2.151 1.319 0.331 1.974 0.397 3.813 0.405 1.914 0 2.537-0.075 4.012-0.461 4.003-1.080 7.307-3.561 9.428-6.873l0.038-0.064c0.954-1.511 1.987-4.144 1.987-5.055 0-0.587-0.384-0.967-0.99-0.967-0.397 0-0.531 0.068-1.11 0.514-1.957 1.55-4.461 2.486-7.184 2.486-1.933 0-3.756-0.472-5.359-1.306l0.064 0.030c-2.283-1.164-4.088-2.988-5.196-5.22l-0.030-0.068c-0.762-1.517-1.209-3.306-1.209-5.2 0-1.535 0.293-3.001 0.827-4.346l-0.028 0.080c0.354-0.935 0.924-1.908 1.767-3.030 0.171-0.228 0.203-0.32 0.203-0.612 0-0.427-0.166-0.721-0.508-0.918-0.376-0.209-0.76-0.177-1.694 0.132z"></path>
</symbol>
<symbol id="paper" viewBox="0 0 32 32">
<path d="M11.89 0.044c-0.17 0.069-0.219 0.35-0.419 2.281-0.112 1.094-0.213 2-0.225 2.013s-2.344 0.338-5.182 0.719c-2.838 0.382-5.219 0.707-5.295 0.726-0.082 0.018-0.187 0.118-0.238 0.218-0.088 0.175 0 0.894 1.5 11.984 0.875 6.495 1.613 11.908 1.632 12.045 0.056 0.331 0.212 0.475 0.537 0.475 0.15 0 0.787-0.069 1.419-0.156s1.169-0.157 1.2-0.157c0.032 0 0.056 0.331 0.056 0.744 0 0.656 0.013 0.756 0.132 0.907l0.125 0.162h15.59l2.076-2.082 2.082-2.075v-0.613c0-0.444 0.018-0.607 0.081-0.607 0.038 0 0.438 0.044 0.888 0.088 0.856 0.094 1.038 0.069 1.156-0.15 0.069-0.131 0.368-2.719 0.375-3.207 0-0.312-0.175-0.481-0.494-0.481-0.413 0-0.469 0.125-0.595 1.412-0.144 1.513-0.138 1.475-0.338 1.438-0.167-0.027-0.379-0.052-0.594-0.067l-0.025-0.001-0.456-0.043v-18.222l-0.131-0.168-0.126-0.163-2.95-0.012-2.951-0.019-0.231-1.719c-0.131-0.944-0.262-1.782-0.3-1.864-0.047-0.090-0.123-0.16-0.216-0.199l-0.003-0.001c-0.112-0.043-1.163 0.082-3.876 0.45-2.050 0.275-3.745 0.488-3.763 0.469-0.038-0.038 0.256-3.094 0.3-3.132 0.032-0.025 17.809 1.813 17.841 1.85 0.013 0.013-0.394 4.069-0.907 9.021-0.825 7.982-0.919 9.014-0.844 9.164 0.15 0.282 0.488 0.331 0.751 0.1l0.162-0.138 0.963-9.346c0.531-5.138 0.951-9.395 0.931-9.458s-0.1-0.15-0.181-0.206c-0.106-0.069-2.512-0.338-9.483-1.056-8.826-0.913-9.782-1.007-9.976-0.925zM19.528 5.688c0.094 0.669 0.162 1.256 0.162 1.295 0 0.062-1.3 0.081-6.275 0.081h-6.283l-0.125 0.162c-0.125 0.162-0.131 0.238-0.131 2.1v1.938l0.187 0.188c0.162 0.156 0.225 0.181 0.388 0.15 0.431-0.088 0.424-0.062 0.424-1.894v-1.644h18.003v19.066h-1.806c-1.682 0-1.813 0.006-1.951 0.119l-0.15 0.118-0.018 1.851-0.019 1.85h-14.059v-8.845c0-8.764 0-8.845-0.124-8.97-0.194-0.194-0.582-0.169-0.744 0.037-0.131 0.169-0.131 0.169-0.131 8.027v7.857l-1.125 0.144c-0.619 0.081-1.132 0.138-1.144 0.118-0.025-0.031-3.095-22.71-3.076-22.735 0.013-0.018 0.963-0.144 11.877-1.625 5.15-0.7 5.882-0.788 5.919-0.707 0.026 0.056 0.112 0.65 0.2 1.319zM25.129 28.148c0 0.006-0.494 0.506-1.094 1.107l-1.094 1.095v-2.22h1.094c0.6 0 1.094 0.006 1.094 0.019z"></path>
</symbol>
<symbol id="puzzle" viewBox="0 0 32 32">
<path d="M22.081 0.446c-1.577 0.438-2.714 1.861-2.714 3.549 0 0.077 0.002 0.154 0.007 0.23l-0-0.010c0.013 0.318 0.049 0.631 0.073 0.686 0.043 0.104-0.080 0.11-2.108 0.11-2.291 0-2.488 0.024-2.634 0.294-0.049 0.085-0.068 1.096-0.068 3.131v3.002l0.141 0.166c0.19 0.22 0.508 0.214 0.993-0.013 0.331-0.159 0.435-0.178 0.98-0.178 0.57 0 0.643 0.013 1.054 0.208 1.317 0.613 1.881 2.157 1.261 3.437-0.178 0.368-0.729 0.962-1.048 1.128l-0.195 0.104v-0.705c0-0.759-0.055-0.968-0.289-1.072-0.098-0.043-0.931-0.067-2.598-0.067h-2.451l0.049-0.386c0.073-0.545 0.037-1.226-0.080-1.63-0.337-1.17-1.225-2.096-2.395-2.494-0.405-0.141-0.582-0.166-1.152-0.166s-0.747 0.025-1.152 0.166c-1.17 0.399-2.046 1.312-2.39 2.481-0.129 0.447-0.159 1.483-0.049 1.826l0.061 0.202h-2.206c-2.316 0-2.494 0.019-2.592 0.276-0.018 0.055-0.036 3.848-0.036 8.419 0 7.984 0.006 8.327 0.11 8.419 0.104 0.099 0.784 0.104 8.547 0.104h8.432l0.092-0.135c0.086-0.122 0.099-0.496 0.099-2.904v-2.763l-0.154-0.166c-0.19-0.208-0.459-0.208-0.907-0.006-0.974 0.447-2.095 0.239-2.862-0.521-1.127-1.133-0.968-3.020 0.331-3.897 0.171-0.116 0.331-0.208 0.355-0.208 0.031 0 0.049 0.208 0.049 0.466 0 0.429 0.013 0.478 0.178 0.643l0.178 0.178h8.253c8.787 0 8.524 0.006 8.634-0.276 0.018-0.055 0.036-1.354 0.036-2.886 0-2.69-0.006-2.788-0.122-2.904-0.196-0.196-0.41-0.214-0.759-0.061-0.748 0.331-1.428 0.38-2.047 0.159-1.709-0.613-2.273-2.745-1.091-4.123 0.729-0.846 1.942-1.097 3.027-0.631 0.478 0.202 0.613 0.202 0.858-0.019l0.135-0.122v-6.152l-0.159-0.147-0.159-0.147-5.019-0.037 0.049-0.196c0.025-0.11 0.049-0.484 0.049-0.84 0-0.508-0.031-0.736-0.153-1.097-0.19-0.588-0.65-1.28-1.109-1.661-0.417-0.349-1.103-0.692-1.575-0.791-0.435-0.092-1.378-0.073-1.758 0.025zM23.711 1.543c0.901 0.276 1.569 0.956 1.795 1.844 0.166 0.625 0.11 1.121-0.208 1.845-0.159 0.355-0.135 0.564 0.073 0.759 0.129 0.117 0.208 0.122 2.788 0.122h2.653v2.151c0 2.028-0.006 2.151-0.104 2.109-0.239-0.105-1.336-0.105-1.74-0.006-1.336 0.336-2.396 1.378-2.715 2.677-0.122 0.502-0.129 1.33-0.006 1.801 0.129 0.509 0.473 1.177 0.803 1.55 0.373 0.429 1.097 0.901 1.636 1.067 0.459 0.141 1.489 0.196 1.93 0.098l0.196-0.049v3.738h-15.074v-3.75l0.141 0.037c0.074 0.024 0.374 0.061 0.662 0.080 1.060 0.067 2.034-0.294 2.788-1.048 0.239-0.238 0.508-0.564 0.601-0.729 1.158-1.991 0.264-4.515-1.893-5.349-0.38-0.147-0.515-0.166-1.195-0.172-0.422-0.006-0.839 0.013-0.931 0.043l-0.171 0.043v-4.289h4.822l0.122-0.141c0.215-0.233 0.221-0.361 0.013-0.876-0.613-1.52 0.098-3.070 1.63-3.554 0.331-0.104 1.042-0.104 1.384 0zM9.661 10.979c0.944 0.294 1.649 1.14 1.795 2.144 0.062 0.472-0.006 0.895-0.22 1.372-0.233 0.508-0.196 0.809 0.134 0.98 0.092 0.055 0.877 0.073 2.739 0.073h2.61v0.999l-0.313-0.043c-0.27-0.050-0.51-0.129-0.735-0.235l0.018 0.008c-0.496-0.22-0.65-0.226-0.876 0l-0.178 0.178v3.351l-0.545 0.257c-0.943 0.447-1.636 1.275-1.942 2.316-0.171 0.594-0.147 1.532 0.062 2.145 0.398 1.17 1.312 2.040 2.525 2.395 0.392 0.11 1.152 0.147 1.666 0.067l0.319-0.049v3.683h-15.073v-15.073h2.335c1.654 0 2.372-0.018 2.463-0.073 0.331-0.171 0.368-0.471 0.129-0.992-0.907-1.979 1.011-4.154 3.088-3.505z"></path>
</symbol>
<symbol id="scissors" viewBox="0 0 32 32">
<path d="M21.679 0.138c-0.1 0.094-1.194 2.307-2.981 6.051-1.551 3.251-2.838 5.932-2.863 5.958-0.026 0.024-0.557-1.013-1.176-2.313-0.624-1.3-1.88-3.938-2.8-5.863-0.923-1.925-1.743-3.576-1.831-3.669-0.5-0.544-1.351-0.1-1.856 0.968-0.394 0.826-0.488 1.313-0.494 2.513-0.006 1.169 0.069 1.651 0.413 2.688 0.213 0.638 2.15 4.75 2.312 4.919 0.275 0.275 0.8 0.032 0.8-0.368 0-0.126-0.362-0.963-0.975-2.239-1.032-2.168-1.331-2.957-1.5-3.906-0.119-0.7-0.094-1.819 0.062-2.407 0.112-0.413 0.469-1.169 0.568-1.2 0.038-0.013 0.807 1.538 1.72 3.432 0.906 1.9 2.75 5.751 4.094 8.557l2.444 5.101-2.275 1.138-1.613-3.388c-0.888-1.863-1.682-3.451-1.756-3.532-0.087-0.083-0.206-0.135-0.336-0.135-0.12 0-0.23 0.044-0.315 0.116l0.001-0.001c-0.288 0.232-0.218 0.432 0.907 2.782l1.044 2.176-0.163 0.268c-0.356 0.607-0.631 0.7-1.844 0.595-1.775-0.15-3.326 0.181-4.676 0.994-2.2 1.319-3.732 3.645-4.113 6.219-0.176 1.2-0.044 2.132 0.443 3.101 0.744 1.475 2.351 2.7 4.063 3.101 0.662 0.157 1.894 0.157 2.469 0.006 0.925-0.25 1.894-0.85 2.52-1.563 0.581-0.663 0.875-1.194 2.25-4.082 0.738-1.544 1.394-2.919 1.469-3.057l0.125-0.25 0.369 0.781c1.788 3.782 2.663 5.545 2.969 6.007 0.7 1.056 1.769 1.876 2.894 2.219 0.588 0.182 2.2 0.169 2.869-0.024 2.163-0.627 3.889-2.371 4.263-4.302 0.269-1.412-0.156-3.338-1.1-4.982-1.1-1.932-2.925-3.357-5.001-3.901-0.512-0.138-0.737-0.163-1.656-0.169-0.581 0-1.3 0.006-1.594 0.018-0.406 0.019-0.575 0-0.725-0.075-0.219-0.112-0.538-0.456-0.675-0.725-0.094-0.175-0.069-0.231 0.944-2.381 0.624-1.332 1.037-2.282 1.037-2.395 0-0.224-0.262-0.481-0.487-0.481-0.081 0-0.218 0.062-0.306 0.138-0.088 0.081-0.506 0.9-0.981 1.906-0.45 0.976-0.844 1.769-0.869 1.769-0.019 0-0.344-0.637-0.712-1.412l-0.67-1.419 0.112-0.256c0.357-0.819 5.745-12.033 5.783-12.040 0.075 0 0.482 0.888 0.588 1.282 0.225 0.875 0.181 2.125-0.131 3.219-0.2 0.712-0.357 1.075-1.463 3.389-0.518 1.087-0.944 2.050-0.944 2.132 0 0.262 0.2 0.45 0.494 0.45 0.144 0 0.294-0.044 0.344-0.094 0.168-0.169 2.175-4.457 2.381-5.094 0.357-1.069 0.438-1.569 0.432-2.72 0-0.869-0.026-1.112-0.144-1.556-0.263-1-0.751-1.807-1.213-2.025-0.325-0.157-0.751-0.138-0.944 0.031zM14.784 20.698l0.456 0.963-1.175 2.469c-1.938 4.063-2.256 4.689-2.663 5.201-1.688 2.125-4.633 2.138-6.732 0.019-1.082-1.088-1.438-2.188-1.195-3.689 0.319-1.925 1.451-3.819 2.969-4.975 0.588-0.444 1.675-0.97 2.413-1.163 0.563-0.144 0.719-0.156 1.594-0.144 2.376 0.038 2.12 0.050 2.563-0.168 0.226-0.112 0.494-0.288 0.594-0.394l0.188-0.2 0.262 0.563c0.15 0.306 0.475 0.994 0.725 1.519zM20.61 19.473c1.557 0 1.726 0.012 2.2 0.144 2.588 0.706 4.538 2.781 5.245 5.569 0.318 1.238 0.256 2.169-0.194 3.064-0.625 1.243-1.907 2.263-3.307 2.624-0.6 0.157-1.587 0.176-2.1 0.038-0.919-0.244-1.888-0.969-2.469-1.844-0.156-0.238-1.168-2.282-2.25-4.545l-1.964-4.113 1.263-0.632 1.263-0.637 0.312 0.168 0.313 0.163h1.688z"></path>
<path d="M9.389 21.067c-0.919 0.144-1.682 0.563-2.476 1.344-0.631 0.631-1.075 1.256-1.525 2.188-0.375 0.775-0.462 1.156-0.425 1.912 0.018 0.52 0.050 0.651 0.25 1.057 0.275 0.575 0.563 0.912 1.056 1.244 1.295 0.869 3.007 0.625 4.102-0.582 0.443-0.488 0.594-0.756 1.675-3.007 0.975-2.032 1.056-2.281 0.944-2.869-0.056-0.281-0.469-0.737-0.813-0.9-0.694-0.331-2.012-0.512-2.788-0.387zM11.227 22.185c0.531 0.15 0.75 0.3 0.775 0.55 0.012 0.131-0.238 0.719-0.919 2.138-1.050 2.188-1.2 2.45-1.638 2.845-0.5 0.45-0.807 0.568-1.463 0.568-0.662 0-1.019-0.137-1.45-0.568-0.444-0.444-0.551-0.713-0.551-1.4 0-0.582 0.006-0.607 0.294-1.207 0.856-1.769 1.907-2.763 3.207-3.045 0.362-0.082 1.244-0.018 1.744 0.118zM20.517 21.223c-0.888 0.182-1.419 0.456-1.688 0.888-0.157 0.243-0.188 0.356-0.188 0.681 0 0.213 0.038 0.494 0.088 0.626 0.162 0.456 1.956 4.137 2.168 4.438 1.182 1.738 3.389 2.088 4.833 0.776 0.663-0.614 0.975-1.314 0.975-2.214 0-0.637-0.113-1.081-0.444-1.737-0.763-1.519-1.707-2.588-2.756-3.12-0.813-0.406-1.982-0.544-2.988-0.338zM22.672 22.305c1.038 0.381 1.97 1.368 2.707 2.881 0.25 0.526 0.288 0.651 0.313 1.1 0.025 0.463 0.006 0.557-0.144 0.901-0.6 1.337-2.294 1.643-3.357 0.612-0.444-0.425-0.619-0.731-1.613-2.813-1.037-2.181-1.069-2.288-0.712-2.494 0.638-0.368 2.038-0.462 2.806-0.187zM15.334 16.791c-0.406 0.512 0.256 1.207 0.712 0.744 0.194-0.187 0.206-0.512 0.025-0.744-0.1-0.125-0.181-0.162-0.368-0.162s-0.269 0.038-0.369 0.162z"></path>
</symbol>
<symbol id="stone" viewBox="0 0 32 32">
<path d="M16.816 4.108c-0.638 0.168-0.926 0.412-3.282 2.776-2.568 2.581-2.582 2.6-2.732 3.65l-0.082 0.556-0.374 0.082c-1.656 0.344-8.001 1.876-8.252 1.988-0.495 0.237-0.886 0.626-1.119 1.105l-0.006 0.014c-0.194 0.406-0.256 0.675-0.594 2.638-0.207 1.199-0.375 2.332-0.375 2.512 0 0.6 0.244 0.994 0.782 1.244 0.294 0.138 0.381 0.15 1.481 0.15 1.275 0 1.444-0.038 1.544-0.319 0.075-0.218-0.019-0.531-0.182-0.619-0.062-0.038-0.619-0.063-1.231-0.063-1.263 0-1.394-0.037-1.394-0.394 0-0.112 0.168-1.168 0.368-2.35 0.314-1.788 0.4-2.188 0.538-2.42 0.162-0.281 0.6-0.65 0.763-0.65 0.050 0 1.138 0.45 2.413 0.994 2.332 0.994 2.681 1.131 2.988 1.131 0.144 0 0.213 0.088 0.556 0.682 0.382 0.669 0.531 0.819 0.819 0.819 0.194 0 0.431-0.275 0.431-0.5 0-0.112-0.094-0.362-0.219-0.575l-0.218-0.374 1.794 0.037c0.994 0.026 2.425 0.056 3.194 0.075l1.394 0.038 0.138 0.262c0.126 0.238 0.138 0.357 0.157 1.582l0.018 1.325-0.156 0.162-0.157 0.156h-5.213c-5.182 0-5.214 0-5.383 0.132-0.218 0.174-0.225 0.5-0.006 0.712l0.15 0.156h5.263c3.963 0 5.326-0.018 5.52-0.074 0.156-0.050 0.368-0.194 0.544-0.369 0.412-0.406 0.45-0.625 0.418-2.338-0.032-1.544-0.088-1.794-0.526-2.344-0.118-0.156-1.094-1.163-2.168-2.238-1.67-1.675-2-1.981-2.313-2.125l-0.369-0.168 0.044-0.407c0.068-0.7 0.174-0.856 1.55-2.232 1.7-1.7 1.712-1.706 3.982-1.706 1.424 0 1.944 0.062 2.424 0.294 0.619 0.288 0.863 0.612 2.464 3.263l1.494 2.463 0.112 0.875c0.138 1 0.207 1.138 0.613 1.125 0.426-0.013 0.538-0.338 0.394-1.175-0.018-0.093-0.031-0.205-0.037-0.318l-0-0.006c0.006-0.006 0.387 0.081 0.85 0.2 0.456 0.118 0.912 0.218 1.007 0.218 0.269 0 0.456-0.194 0.456-0.469 0-0.374-0.156-0.462-1.438-0.775l-1.131-0.282-1.494-2.469c-1.638-2.707-1.938-3.094-2.688-3.489-0.668-0.356-0.937-0.393-2.744-0.393l-1.625-0.006 0.362-0.338c0.587-0.556 0.325-0.531 5.519-0.531 4.901 0 4.789-0.006 5.257 0.35 0.113 0.082 0.282 0.288 0.376 0.45l0.174 0.294 0.032 1.531c0.043 1.994-0.063 1.776 1.719 3.413 0.843 0.768 1.4 1.325 1.475 1.475 0.087 0.168 0.137 0.431 0.162 0.863 0.018 0.344 0.018 0.624 0 0.624s-0.131-0.056-0.244-0.118c-0.218-0.125-1.844-0.568-2.094-0.568-0.213 0-0.456 0.268-0.456 0.487 0 0.344 0.15 0.438 1.037 0.662 0.931 0.232 1.269 0.4 1.495 0.725 0.194 0.282 0.306 0.851 0.262 1.375-0.050 0.656 0.081 0.625-2.507 0.625h-2.207l-0.619-0.256c-1-0.413-1.632-0.394-2.326 0.075l-0.269 0.181h-4.501l-0.15 0.157c-0.095 0.085-0.155 0.207-0.155 0.344s0.060 0.259 0.154 0.343l0 0 0.15 0.156h3.745l-0.062 0.262c-0.032 0.15-0.050 0.513-0.032 0.813l0.026 0.55h-0.825c-0.782 0-0.832 0.006-0.956 0.144-0.2 0.212-0.188 0.555 0.024 0.724 0.163 0.131 0.219 0.131 3.551 0.131 2.076 0 3.469-0.024 3.607-0.062 0.347-0.097 0.631-0.321 0.803-0.618l0.003-0.006c0.125-0.232 0.15-0.37 0.15-0.751 0-0.444-0.044-0.588-0.326-1.144-0.012-0.025 0.563-0.044 1.282-0.044 1.231 0 1.319-0.006 1.612-0.15 0.369-0.169 0.626-0.444 0.719-0.775 0.050-0.156 0.062-1 0.050-2.544l-0.018-2.312-0.194-0.376c-0.162-0.312-0.406-0.575-1.551-1.624-0.75-0.688-1.394-1.307-1.431-1.376-0.050-0.080-0.088-0.65-0.106-1.624l-0.031-1.5-0.2-0.419c-0.344-0.724-0.907-1.193-1.688-1.393-0.524-0.138-9.438-0.131-9.957 0.006zM11.664 12.247c0.138 0.075 0.907 0.794 1.712 1.607l1.47 1.475-0.469-0.031c-0.256-0.018-1.712-0.050-3.238-0.075-1.838-0.024-2.882-0.062-3.094-0.112-0.357-0.088-3.707-1.494-3.62-1.525l3.207-0.763c3.388-0.8 3.551-0.824 4.033-0.575zM25.911 18.11c1.519 0.607 1.519 0.607 1.663 0.919 0.15 0.338 0.15 0.512-0.006 0.669-0.118 0.119-0.206 0.125-2.081 0.125-2.295 0-2.176 0.032-2.22-0.656-0.044-0.65 0.262-1.125 0.894-1.412 0.138-0.063 0.319-0.119 0.406-0.119s0.694 0.213 1.344 0.475zM18.678 21.511c-0.344 0.088-4.607 1.8-4.901 1.968-0.788 0.457-1.319 1.532-1.263 2.557 0.050 0.863 0.437 1.475 1.144 1.8l0.312 0.144 6.183 0.018c6.751 0.019 6.401 0.038 6.538-0.331 0.069-0.187-0.031-0.512-0.187-0.594-0.069-0.038-0.888-0.062-1.994-0.062-1.038 0-1.882-0.006-1.882-0.019 0-0.006 0.056-0.187 0.126-0.4 0.162-0.525 0.212-1.187 0.131-1.863-0.194-1.681-1.782-3.145-3.538-3.25-0.238-0.013-0.538 0-0.669 0.031zM19.959 22.617c0.444 0.168 1.088 0.631 1.363 0.975 0.456 0.563 0.569 0.888 0.576 1.656 0.006 0.419-0.019 0.782-0.076 0.976-0.118 0.412-0.418 0.706-0.768 0.756-0.15 0.018-1.764 0.031-3.595 0.018-3.244-0.018-3.325-0.018-3.494-0.15-0.318-0.232-0.425-0.438-0.45-0.856-0.003-0.038-0.004-0.082-0.004-0.126 0-0.506 0.21-0.962 0.548-1.287l0.001-0.001c0.268-0.262 0.456-0.357 2.319-1.1 1.119-0.444 2.175-0.863 2.344-0.919 0.356-0.131 0.806-0.112 1.237 0.056zM25.88 23.261c-0.288 0.288-0.069 0.875 0.331 0.875 0.187 0 0.412-0.162 0.481-0.35 0.069-0.182-0.031-0.506-0.187-0.588-0.194-0.1-0.494-0.069-0.625 0.062z"></path>
</symbol>
<symbol id="sun" viewBox="0 0 32 32">
<path d="M15.142 0.115c-0.096 0.064-0.179 0.139-0.25 0.224l-0.002 0.002c-0.128 0.184-2.194 4.733-2.168 4.763 0.299-0.032 0.568-0.082 0.829-0.149l-0.039 0.009c0.696-0.147 0.883-0.158 2.106-0.164 1.308 0 1.933 0.066 2.832 0.312 0.073 0.023 0.134 0.013 0.134-0.026 0-0.049-1.485-3.318-2.023-4.456-0.226-0.469-0.452-0.629-0.92-0.629-0.22 0-0.393 0.036-0.501 0.115zM4.861 4.364c-0.333 0.158-0.563 0.485-0.58 0.866l-0 0.002c0 0.115 0.982 2.859 1.784 4.97 0.049 0.141 0.073 0.122 0.361-0.331 0.883-1.372 2.013-2.508 3.337-3.371l0.043-0.026c0.508-0.331 0.538-0.363 0.397-0.41-2.787-1.052-4.725-1.743-4.914-1.761-0.028-0.003-0.061-0.005-0.094-0.005-0.12 0-0.235 0.024-0.339 0.067l0.006-0.002zM23.505 5.164c-1.308 0.491-2.422 0.901-2.471 0.918-0.060 0.026 0.085 0.147 0.393 0.341 1.372 0.884 2.508 2.015 3.371 3.339l0.026 0.043c0.331 0.508 0.363 0.538 0.41 0.397 1.504-3.986 1.75-4.688 1.75-4.989 0-0.009 0-0.019 0-0.029 0-0.467-0.364-0.85-0.824-0.879l-0.003-0c-0.233-0.026-0.623 0.102-2.652 0.862zM14.489 6.577c-0.937 0.171-1.28 0.256-1.799 0.435-3.052 1.056-5.213 3.483-5.977 6.705-0.192 0.777-0.203 2.902-0.026 3.734 0.756 3.608 3.551 6.403 7.099 7.149l0.060 0.011c0.775 0.164 2.823 0.164 3.574 0.006 3.675-0.783 6.425-3.527 7.191-7.166 0.162-0.79 0.162-2.817 0-3.606-0.667-3.187-2.918-5.729-5.873-6.796l-0.064-0.020c-1.003-0.354-1.528-0.44-2.842-0.459-0.172-0.005-0.374-0.008-0.577-0.008-0.27 0-0.539 0.005-0.806 0.016l0.038-0.001zM3.15 13.572c-2.99 1.379-2.885 1.323-3.022 1.549-0.082 0.155-0.13 0.338-0.13 0.532 0 0.19 0.045 0.368 0.126 0.526l-0.003-0.007c0.141 0.226 0.122 0.213 3.043 1.551 1.052 0.484 1.921 0.862 1.938 0.849-0.032-0.299-0.082-0.568-0.149-0.829l0.009 0.039c-0.145-0.689-0.158-0.89-0.158-2.106-0.006-1.163 0.013-1.438 0.134-2.019 0.073-0.371 0.154-0.732 0.171-0.811 0.026-0.094 0.013-0.137-0.043-0.128-0.049 0-0.911 0.384-1.921 0.847zM26.188 12.848c0.239 0.888 0.312 1.528 0.312 2.8s-0.073 1.914-0.312 2.795c-0.023 0.079-0.011 0.139 0.026 0.139 2.698-1.149 4.163-1.828 5.618-2.524l-1.162 0.501c0.469-0.226 0.63-0.452 0.63-0.911s-0.16-0.683-0.63-0.911c-0.292-0.195-1.758-0.873-3.232-1.534l-1.223-0.489c-0.038 0-0.049 0.062-0.026 0.134zM6.065 21.096c-0.030 0.079-0.452 1.204-0.928 2.499-0.937 2.524-0.96 2.629-0.691 2.99 0.226 0.294 0.433 0.405 0.768 0.397 0.301 0 1.011-0.25 4.989-1.748 0.141-0.049 0.124-0.073-0.329-0.361-1.373-0.883-2.509-2.013-3.373-3.337l-0.026-0.043c-0.337-0.508-0.363-0.538-0.41-0.397zM24.954 21.303c-0.783 1.308-2.078 2.623-3.461 3.521-0.508 0.337-0.538 0.363-0.397 0.41 0.079 0.030 1.204 0.452 2.501 0.928 1.985 0.734 2.384 0.862 2.591 0.839 0.283-0.046 0.521-0.207 0.67-0.432l0.002-0.004c0.256-0.341 0.203-0.591-0.751-3.154-0.504-1.42-0.814-2.212-1.135-2.999l0.217 0.602c-0.023-0.023-0.128 0.107-0.237 0.288zM12.716 26.205c0 0.049 1.521 3.406 2.023 4.464 0.226 0.469 0.452 0.63 0.911 0.63s0.683-0.16 0.911-0.63c0.538-1.137 2.023-4.409 2.023-4.458 0-0.036-0.062-0.049-0.134-0.023-0.888 0.239-1.528 0.312-2.8 0.312s-1.914-0.073-2.795-0.312c-0.079-0.026-0.139-0.013-0.139 0.017z"></path>
</symbol>
<symbol id="sword" viewBox="0 0 32 32">
<path d="M23.87 0.752c-0.1 0.036-3.225 3.11-6.94 6.833l-6.761 6.754-0.775-0.76c-0.703-0.689-0.795-0.76-1.037-0.76-0.142 0-0.348 0.044-0.455 0.1s-0.746 0.661-1.413 1.336l-1.229 1.236v0.767l1.314 1.314 1.307 1.322-3.58 3.593-3.587 3.586v0.775l2.472 2.465 2.465 2.472h0.71l7.209-7.209 1.336 1.335 1.336 1.328h0.767l1.236-1.222c0.675-0.674 1.279-1.314 1.336-1.42s0.099-0.313 0.099-0.455c0-0.241-0.071-0.334-0.759-1.037l-0.76-0.774 6.754-6.761c3.807-3.8 6.797-6.846 6.84-6.96 0.042-0.128 0.071-1.449 0.071-3.751 0-3.892 0.007-3.856-0.426-4.076-0.177-0.092-0.717-0.107-3.778-0.1-2.152 0-3.644 0.029-3.75 0.071zM21.334 9.993l-7.763 7.762-1.114-1.122-1.122-1.115 13.282-13.282h4.474l-7.755 7.756zM23.621 14.524l-6.641 6.641-1.115-1.122-1.122-1.115 15.483-15.483 0.022 2.216 0.015 2.223-6.641 6.641zM17.194 24.786l-0.568 0.569-9.482-9.482 1.136-1.136 9.482 9.481-0.568 0.569zM9.225 26.648l-3.217 3.217-3.374-3.374 6.427-6.428 3.374 3.374-3.21 3.211z"></path>
</symbol>
<symbol id="tic-tac-toe" viewBox="0 0 32 32">
<path d="M3.032 0.671c-1.14 0.312-2.090 1.274-2.395 2.42-0.135 0.508-0.135 25.839 0 26.348 0.306 1.158 1.261 2.114 2.42 2.421 0.508 0.135 25.839 0.135 26.348 0 1.158-0.306 2.114-1.263 2.42-2.421 0.135-0.508 0.135-25.839 0-26.348-0.306-1.158-1.262-2.114-2.421-2.421-0.483-0.129-25.906-0.129-26.372 0zM15.189 8.943v6.281h-12.561l0.013-5.809 0.018-5.815 0.184-0.294c0.134-0.221 0.276-0.35 0.515-0.472l0.324-0.172h11.507v6.281zM29.104 2.834c0.238 0.122 0.38 0.251 0.515 0.472l0.184 0.294 0.019 5.815 0.012 5.809h-12.561v-12.561h11.508l0.324 0.172zM15.189 23.588v6.281l-11.623-0.031-0.294-0.183c-0.221-0.135-0.35-0.276-0.472-0.515l-0.171-0.325v-11.507h12.561v6.281zM29.834 23.060v5.753l-0.171 0.325c-0.123 0.238-0.251 0.38-0.472 0.515l-0.294 0.184-11.624 0.031v-12.561h12.562v5.753z"></path>
<path d="M22.371 5.113c-1.495 0.392-2.635 1.55-2.984 3.027-0.129 0.546-0.117 1.452 0.031 2.022 0.183 0.729 0.502 1.281 1.072 1.851 0.864 0.87 1.82 1.232 3.113 1.177 1.103-0.049 1.893-0.387 2.672-1.152 0.766-0.747 1.164-1.648 1.213-2.727 0.037-0.778-0.080-1.366-0.404-2.022-0.429-0.864-1.017-1.446-1.875-1.875-0.864-0.422-1.924-0.539-2.837-0.3zM24.227 7.288c0.741 0.355 1.268 1.256 1.17 2.010-0.098 0.71-0.496 1.28-1.128 1.587-0.361 0.178-0.466 0.202-0.901 0.202-0.594-0.006-0.956-0.159-1.379-0.582-0.422-0.417-0.575-0.784-0.575-1.379-0.006-0.435 0.018-0.539 0.196-0.901 0.49-0.998 1.63-1.403 2.617-0.938zM6.654 20.395c-0.289 0.104-0.436 0.232-0.558 0.496-0.11 0.233-0.129 0.68-0.031 0.926 0.031 0.098 0.386 0.496 0.778 0.894l0.711 0.724-0.742 0.753c-0.441 0.447-0.759 0.816-0.784 0.919-0.073 0.276 0 0.803 0.123 0.968 0.061 0.086 0.184 0.208 0.27 0.27 0.165 0.122 0.692 0.196 0.968 0.122 0.104-0.025 0.472-0.343 0.919-0.784l0.753-0.741 0.724 0.71c0.399 0.392 0.797 0.747 0.894 0.778 0.251 0.098 0.693 0.080 0.938-0.036 0.251-0.117 0.484-0.447 0.54-0.766 0.079-0.417-0.055-0.638-0.846-1.447l-0.741-0.747 0.741-0.754c0.601-0.601 0.754-0.797 0.809-1.011 0.028-0.089 0.044-0.192 0.044-0.298 0-0.574-0.465-1.039-1.039-1.039-0.106 0-0.209 0.016-0.305 0.046l0.007-0.002c-0.215 0.055-0.41 0.208-1.017 0.808l-0.747 0.742-0.723-0.711c-0.895-0.894-1.14-1.010-1.685-0.821z"></path>
</symbol>
</defs>
</svg>
